<?xml version="1.0" encoding="UTF-8"?>
<svg xmlns="http://www.w3.org/2000/svg" xmlns:xlink="http://www.w3.org/1999/xlink" width="30px" height="29px" viewBox="0 0 29 29" version="1.1">
<g id="surface1">
<path style=" stroke:none;fill-rule:evenodd;fill:rgb(14.117647%,16.078431%,18.431373%);fill-opacity:1;" d="M 14.457031 0 C 6.460938 0 0 6.644531 0 14.867188 C 0 21.441406 4.140625 27.003906 9.886719 28.972656 C 10.601562 29.121094 10.867188 28.652344 10.867188 28.257812 C 10.867188 27.914062 10.84375 26.730469 10.84375 25.5 C 6.820312 26.386719 5.984375 23.730469 5.984375 23.730469 C 5.335938 22.007812 4.378906 21.5625 4.378906 21.5625 C 3.0625 20.652344 4.476562 20.652344 4.476562 20.652344 C 5.9375 20.75 6.703125 22.179688 6.703125 22.179688 C 7.996094 24.441406 10.078125 23.804688 10.914062 23.410156 C 11.035156 22.449219 11.417969 21.785156 11.824219 21.414062 C 8.617188 21.070312 5.242188 19.789062 5.242188 14.078125 C 5.242188 12.457031 5.816406 11.125 6.726562 10.09375 C 6.582031 9.722656 6.078125 8.195312 6.871094 6.152344 C 6.871094 6.152344 8.089844 5.761719 10.84375 7.679688 C 12.019531 7.355469 13.234375 7.1875 14.457031 7.1875 C 15.675781 7.1875 16.921875 7.359375 18.070312 7.679688 C 20.824219 5.761719 22.042969 6.152344 22.042969 6.152344 C 22.835938 8.195312 22.332031 9.722656 22.1875 10.09375 C 23.121094 11.125 23.671875 12.457031 23.671875 14.078125 C 23.671875 19.789062 20.296875 21.046875 17.066406 21.414062 C 17.59375 21.882812 18.046875 22.769531 18.046875 24.171875 C 18.046875 26.164062 18.023438 27.765625 18.023438 28.257812 C 18.023438 28.652344 18.285156 29.121094 19.003906 28.972656 C 24.75 27.003906 28.890625 21.441406 28.890625 14.867188 C 28.914062 6.644531 22.425781 0 14.457031 0 Z M 14.457031 0 "/>
</g>
</svg>
