<?xml version="1.0" encoding="UTF-8"?>
<svg xmlns="http://www.w3.org/2000/svg" xmlns:xlink="http://www.w3.org/1999/xlink" width="98px" height="96px" viewBox="0 0 73 72" version="1.1">
<g id="surface1">
<path style=" stroke:none;fill-rule:evenodd;fill:rgb(14.117647%,16.078431%,18.431373%);fill-opacity:1;" d="M 36.390625 0 C 16.269531 0 0 16.5 0 36.914062 C 0 53.230469 10.421875 67.042969 24.882812 71.929688 C 26.691406 72.296875 27.351562 71.136719 27.351562 70.160156 C 27.351562 69.304688 27.292969 66.371094 27.292969 63.3125 C 17.171875 65.515625 15.0625 58.914062 15.0625 58.914062 C 13.4375 54.636719 11.023438 53.535156 11.023438 53.535156 C 7.710938 51.273438 11.265625 51.273438 11.265625 51.273438 C 14.941406 51.519531 16.871094 55.0625 16.871094 55.0625 C 20.125 60.683594 25.367188 59.097656 27.472656 58.117188 C 27.773438 55.734375 28.738281 54.085938 29.765625 53.167969 C 21.691406 52.3125 13.195312 49.136719 13.195312 34.957031 C 13.195312 30.921875 14.640625 27.625 16.929688 25.058594 C 16.570312 24.140625 15.304688 20.351562 17.292969 15.277344 C 17.292969 15.277344 20.363281 14.300781 27.292969 19.066406 C 30.257812 18.257812 33.316406 17.847656 36.390625 17.84375 C 39.464844 17.84375 42.597656 18.273438 45.488281 19.066406 C 52.417969 14.300781 55.492188 15.277344 55.492188 15.277344 C 57.480469 20.351562 56.214844 24.140625 55.851562 25.058594 C 58.203125 27.625 59.585938 30.921875 59.585938 34.957031 C 59.585938 49.136719 51.09375 52.25 42.957031 53.167969 C 44.285156 54.328125 45.429688 56.53125 45.429688 60.011719 C 45.429688 64.964844 45.367188 68.9375 45.367188 70.15625 C 45.367188 71.136719 46.03125 72.296875 47.839844 71.929688 C 62.296875 67.039062 72.722656 53.230469 72.722656 36.914062 C 72.78125 16.5 56.453125 0 36.390625 0 Z M 36.390625 0 "/>
</g>
</svg>
